<svg xmlns="http://www.w3.org/2000/svg" width="48" height="48" viewBox="0 0 48 48" fill="none"><path d="M24.674 12c-4.636 0-5.773 3.777-11.014 3.805l4.427 18.984.015-.013s3.682-1.978 6.572-1.978 6.706 1.978 6.706 1.978l.015.013 4.434-18.876C31.217 15.883 30.08 12 24.674 12zm.067 7.425a2.424 2.424 0 01-2.42-2.428 2.424 2.424 0 012.42-2.428 2.424 2.424 0 012.42 2.428 2.424 2.424 0 01-2.42 2.428z" fill="#B1ABFF"/><path d="M11.394 36.745c5.74 0 10.393-4.667 10.393-10.425 0-5.758-4.653-10.425-10.393-10.425C5.654 15.895 1 20.562 1 26.32c0 5.758 4.653 10.425 10.394 10.425zm25.212 0C42.346 36.745 47 32.078 47 26.32c0-5.758-4.653-10.425-10.394-10.425-5.74 0-10.393 4.667-10.393 10.425 0 5.758 4.653 10.425 10.393 10.425z" fill="#fff" stroke="#222325" stroke-miterlimit="10"/><path d="M11.393 33.517c3.963 0 7.175-3.222 7.175-7.197 0-3.974-3.212-7.197-7.175-7.197-3.962 0-7.174 3.223-7.174 7.197 0 3.975 3.212 7.197 7.174 7.197zm25.214 0c3.962 0 7.175-3.222 7.175-7.197 0-3.974-3.213-7.197-7.175-7.197-3.963 0-7.175 3.223-7.175 7.197 0 3.975 3.212 7.197 7.175 7.197z" fill="#fff" stroke="#222325" stroke-miterlimit="10"/><path d="M7.077 26.29s5.033-5.684 9.494.063c-.679.782-4.46 5.233-9.494-.064z" stroke="#222325" stroke-miterlimit="10"/><path d="M13.586 28.34c1.288 0 2.732-1.954 2.732-1.954s-1.444-2.604-2.732-2.604c-1.287 0-2.332 1.02-2.332 2.279 0 1.258 1.045 2.279 2.332 2.279z" fill="#222325"/><path d="M31.89 26.29s5.033-5.684 9.494.063c-.68.782-4.46 5.233-9.495-.064z" stroke="#222325" stroke-miterlimit="10"/><path d="M38.4 28.34c1.287 0 2.731-1.954 2.731-1.954s-1.444-2.604-2.732-2.604c-1.288 0-2.332 1.02-2.332 2.279 0 1.258 1.044 2.279 2.332 2.279z" fill="#222325"/></svg>