<svg xmlns="http://www.w3.org/2000/svg" width="48" height="48" viewBox="0 0 48 48" fill="none"><g clip-path="url(#clip0_379_1516)"><path d="M17.536 25.711A8.99 8.99 0 006.972 37.676c1.642-2 7.433-8.432 10.564-11.965zm6.461 6.195c-.423.414-.812.861-1.163 1.338-1.433 1.954-7.259 10.19-7.259 10.19a8.992 8.992 0 008.422-11.528z" fill="#B1ABFF" stroke="#B1ABFF" stroke-miterlimit="10"/><path d="M38.081 16.517c-.044-1.164-2.5-.648-4.072.236-1.272.713-2.473 1.458-2.144 2.237.329.779 2.964-.149 4.173-.66 1.208-.512 2.077-.914 2.043-1.813zm-.708 2.949c-.176-1.186-1.182-1.054-3.874-.144-2.535.856-4.11 1.75-4.145 2.57-.035.82 1.734.683 3.943.112 2.208-.572 4.342-.777 4.076-2.538z" stroke="#222325" stroke-miterlimit="10"/><path d="M36.046 22.812c-.075-1.268-2.162-.953-2.743-.805-.582.149-3.8 1.178-4.27 1.879-.471.7 1.033 1.353 3.152.751 2.12-.601 3.92-.807 3.861-1.825zm-4.622 2.165c-.782.237-2.134.641-2.093 1.233.042.592 1.716.557 2.65.448.934-.11 3.009-.786 3.063-1.566.05-.674-.65-.908-1.472-.697-.823.21-2.148.582-2.148.582zm-.126-6.975l2.711-1.248" stroke="#222325" stroke-miterlimit="10"/><path d="M29.642 28.485c-.344.16-.694.315-1.04.462-2.28.963-4.334 2.342-5.768 4.296-1.433 1.955-7.26 10.19-7.26 10.19a8.992 8.992 0 01-8.598-5.764c2.099-2.555 11.06-12.446 12.426-14.096a30.525 30.525 0 017.247-6.286c3.251-1.967 5.748-4.19 6.614-4.704.865-.515 1.523.366.536 2.025-.986 1.66-3.445 4.521-3.445 4.521" stroke="#222325" stroke-miterlimit="10"/><path d="M12.659 31.185l7.603 5.643-4.687 6.606a8.19 8.19 0 01-5.063-1.424 10.112 10.112 0 01-3.537-4.343l5.684-6.482z" fill="#222325"/><path d="M32.64 17.371l.473-1.676m-1.152 4.169l.175-.645m-1.614 5.994l.106-.393m-1.866 6.933l1.377-5.117m3.195-.351l-1.681 6.247m2.324-20.157l1.055-3.916 2.282-2.891.084.021.524 3.645-1.831 6.799m-1.059-7.574l2.89.776" stroke="#222325" stroke-miterlimit="10"/><path d="M36.59 6.527l.85.23-.084-1.178-.766.948z" fill="#222325"/><path d="M31.679 32.538l-2.915-.784.576-2.146 2.921.77-.582 2.16z" fill="#B1ABFF" stroke="#B1ABFF" stroke-miterlimit="10"/></g><defs><clipPath id="clip0_379_1516"><path fill="#fff" d="M0 0h48v48H0z"/></clipPath></defs></svg>